<svg width="13" height="9" viewBox="0 0 13 9" fill="none" xmlns="http://www.w3.org/2000/svg">
<path d="M5.25 6.375L8.49375 4.5L5.25 2.625V6.375ZM12.475 1.48125C12.5562 1.775 12.6125 2.16875 12.65 2.66875C12.6938 3.16875 12.7125 3.6 12.7125 3.975L12.75 4.5C12.75 5.86875 12.65 6.875 12.475 7.51875C12.3187 8.08125 11.9563 8.44375 11.3938 8.6C11.1 8.68125 10.5625 8.7375 9.7375 8.775C8.925 8.81875 8.18125 8.8375 7.49375 8.8375L6.5 8.875C3.88125 8.875 2.25 8.775 1.60625 8.6C1.04375 8.44375 0.68125 8.08125 0.525 7.51875C0.44375 7.225 0.3875 6.83125 0.35 6.33125C0.30625 5.83125 0.2875 5.4 0.2875 5.025L0.25 4.5C0.25 3.13125 0.35 2.125 0.525 1.48125C0.68125 0.91875 1.04375 0.55625 1.60625 0.4C1.9 0.31875 2.4375 0.2625 3.2625 0.225C4.075 0.18125 4.81875 0.1625 5.50625 0.1625L6.5 0.125C9.11875 0.125 10.75 0.225 11.3938 0.4C11.9563 0.55625 12.3187 0.91875 12.475 1.48125Z" fill="#fff"/>
</svg>
