<svg width="24" height="24" viewBox="0 0 24 24" fill="none" xmlns="http://www.w3.org/2000/svg">
<circle cx="12" cy="12" r="12" fill="#E6F3F4"/>
<path d="M11.9032 13.2211C12.3967 12.3432 13.3452 11.8253 13.8963 11.0484C14.4796 10.2337 14.1527 8.71158 12.4992 8.71158C11.4161 8.71158 10.8842 9.52 10.6599 10.1895L9 9.50105C9.45503 8.15579 10.6919 7 12.4928 7C13.9989 7 15.0307 7.67579 15.5562 8.52211C16.0049 9.24842 16.2676 10.6063 15.5755 11.6168C14.8064 12.7347 14.0694 13.0758 13.672 13.7958C13.5118 14.0863 13.4477 14.2758 13.4477 15.2105H11.5956C11.5892 14.7179 11.5123 13.9158 11.9032 13.2211ZM13.781 17.7368C13.781 18.4316 13.2042 19 12.4992 19C11.7943 19 11.2175 18.4316 11.2175 17.7368C11.2175 17.0421 11.7943 16.4737 12.4992 16.4737C13.2042 16.4737 13.781 17.0421 13.781 17.7368Z" fill="black"/>
</svg>
