<svg width="43" height="43" viewBox="0 0 43 43" fill="none" xmlns="http://www.w3.org/2000/svg">
<g clip-path="url(#clip0_151_1272)">
<path d="M29.3991 18.2429C32.2959 18.2429 34.9214 19.4217 36.8236 21.317C38.7258 23.2192 39.8978 25.8378 39.8978 28.7415C39.8978 30.8594 39.2648 32.8381 38.1868 34.4864L42.7319 39.4384L39.5952 42.3039L35.2135 37.4806C33.5478 38.5899 31.5482 39.2367 29.3991 39.2367C26.5023 39.2367 23.8768 38.0579 21.9745 36.1626C20.0723 34.2604 18.9004 31.6418 18.9004 28.7381C18.9004 25.8413 20.0793 23.2157 21.9745 21.3135C23.8768 19.4113 26.4953 18.2429 29.3991 18.2429ZM26.3354 5.76546L38.6319 0.0866484C39.1188 -0.135914 39.6856 0.0762159 39.9047 0.563071C39.9604 0.69174 39.9986 0.827363 39.9986 0.969942V19.7765C39.4213 19.0879 38.4059 18.4585 37.7069 17.8951V2.83738L27.6847 7.81025V14.9844C27.0239 15.0853 25.6329 15.2313 25.007 15.4226V7.81373L14.9812 3.39726V31.6105L16.247 32.5981C16.6122 33.7109 17.113 35.1367 17.732 36.1035L13.6702 33.6518L1.46752 41.0242C1.01544 41.3024 0.417304 41.1529 0.149534 40.7008C0.0486855 40.5443 0 40.3704 0 40.1965V6.82611C0 6.41228 0.25386 6.06105 0.622479 5.92543L13.2668 0.097081H13.2911L13.3155 0.0866484H13.3259C13.4198 0.0518731 13.5102 0.0310079 13.6145 0.0310079H13.7328C13.8267 0.0414405 13.931 0.0553506 14.0214 0.0866484H14.0319L14.0562 0.097081H14.0805L26.3771 5.7759L26.3354 5.76546ZM12.3035 31.6105V3.39726L2.18737 7.71984V37.8318L12.3035 31.6105ZM35.1961 22.9445C33.7112 21.4631 31.6595 20.5415 29.3991 20.5415C27.1387 20.5415 25.0869 21.4631 23.602 22.9445C22.1206 24.4259 21.1991 26.4811 21.1991 28.7415C21.1991 31.0019 22.1206 33.0537 23.602 34.5386C25.0835 36.02 27.1352 36.9416 29.3991 36.9416C31.6595 36.9416 33.7112 36.02 35.1961 34.5386C36.6776 33.0572 37.5991 31.0054 37.5991 28.7415C37.5991 26.4811 36.6776 24.4294 35.1961 22.9445Z" fill="#018390"/>
</g>
<defs>
<clipPath id="clip0_151_1272">
<rect width="42.7319" height="42.3077" fill="white"/>
</clipPath>
</defs>
</svg>
