<svg width="27" height="24" viewBox="0 0 27 24" fill="none" xmlns="http://www.w3.org/2000/svg">
<path d="M23.88 1.515C23.58 0.63 22.74 0 21.75 0H5.25C4.26 0 3.435 0.63 3.12 1.515L0 10.5V22.5C0 23.325 0.675 24 1.5 24H3C3.825 24 4.5 23.325 4.5 22.5V21H22.5V22.5C22.5 23.325 23.175 24 24 24H25.5C26.325 24 27 23.325 27 22.5V10.5L23.88 1.515ZM6.75 16.5C5.505 16.5 4.5 15.495 4.5 14.25C4.5 13.005 5.505 12 6.75 12C7.995 12 9 13.005 9 14.25C9 15.495 7.995 16.5 6.75 16.5ZM20.25 16.5C19.005 16.5 18 15.495 18 14.25C18 13.005 19.005 12 20.25 12C21.495 12 22.5 13.005 22.5 14.25C22.5 15.495 21.495 16.5 20.25 16.5ZM4.215 7.5L5.775 3H21.21L22.77 7.5H4.215Z" fill="#E1E1E1"/>
</svg>
