<svg width="21" height="24" viewBox="0 0 21 24" fill="none" xmlns="http://www.w3.org/2000/svg">
<path d="M18.2857 5.71429H16C16 2.56 13.44 0 10.2857 0C7.13143 0 4.57143 2.56 4.57143 5.71429H2.28571C1.02857 5.71429 0.0114286 6.74286 0.0114286 8L0 21.7143C0 22.9714 1.02857 24 2.28571 24H18.2857C19.5429 24 20.5714 22.9714 20.5714 21.7143V8C20.5714 6.74286 19.5429 5.71429 18.2857 5.71429ZM10.2857 2.28571C12.1829 2.28571 13.7143 3.81714 13.7143 5.71429H6.85714C6.85714 3.81714 8.38857 2.28571 10.2857 2.28571ZM10.2857 13.7143C7.13143 13.7143 4.57143 11.1543 4.57143 8H6.85714C6.85714 9.89714 8.38857 11.4286 10.2857 11.4286C12.1829 11.4286 13.7143 9.89714 13.7143 8H16C16 11.1543 13.44 13.7143 10.2857 13.7143Z" fill="#E1E1E1"/>
</svg>
