<svg width="55" height="50" viewBox="0 0 55 50" fill="none" xmlns="http://www.w3.org/2000/svg">
<path fill-rule="evenodd" clip-rule="evenodd" d="M6.78195 17.9909C1.39583 19.1323 2.34999 27.1892 3.00543 33.9263C3.6341 40.3959 -1.68514 44.0298 0.553134 49.9955H15.6414C16.5555 46.9725 17.0682 43.6285 17.3625 40.5698C16.8319 40.4494 16.3281 40.2488 15.8644 39.9679C14.9726 39.4328 14.2369 38.6258 13.8044 37.6048L8.27562 28.0052C8.23549 27.9338 8.19983 27.867 8.17307 27.7912H8.16861C7.79408 26.8682 7.71383 25.9007 7.88326 24.9866C7.65586 24.8172 7.4463 24.6344 7.25012 24.4293C6.35392 23.4974 5.81441 22.2222 5.84117 20.8266C5.859 19.7699 6.20678 18.7935 6.78195 17.9909ZM10.826 24.2599C8.98902 24.2242 7.53102 22.7038 7.56669 20.8712C7.60236 19.0342 9.12278 17.5762 10.9553 17.6119L27.5997 18.0667C27.6755 18.0667 27.7513 18.0712 27.8271 18.0801C29.3832 17.5896 32.0762 17.6966 36.7267 17.8616C40.5166 17.9954 41.7962 20.8846 42.0727 24.6745L49.6302 46.2725H44.5874C44.6944 47.4362 44.574 48.6579 44.0746 50H26.5653C25.9143 48.8675 25.5041 47.6101 25.2678 46.2725H23.1856L23.8811 40.4896L36.8827 39.9991C38.2783 39.9545 39.5223 39.3481 40.4051 38.4073C41.2924 37.4621 41.8185 36.1824 41.7739 34.7869C41.7293 33.3913 41.1274 32.1429 40.1822 31.26C39.2458 30.3817 37.9796 29.86 36.6018 29.8912L25.1028 30.3282L25.5754 26.3911C26.1996 26.409 26.8194 26.4268 27.4436 26.4491C27.5596 26.4535 27.671 26.4491 27.7825 26.4446V24.7102C27.6799 24.7191 27.5818 24.7191 27.4793 24.7191L10.826 24.2599ZM9.77375 27.1491C9.5954 26.7077 9.5196 26.2484 9.52852 25.8026C9.92089 25.9096 10.3311 25.9765 10.7547 25.9854C12.8012 26.0701 14.8567 26.1281 16.9121 26.1771L20.6798 32.2187L36.6107 31.6123C38.4477 31.5543 39.9815 32.9989 40.0395 34.8315C40.0975 36.6685 38.6528 38.2022 36.8203 38.2602L18.8205 38.9379C17.3803 39.0895 15.9491 38.2825 15.3784 36.8736L9.77375 27.1491ZM54.7845 10.1079C48.355 13.2914 46.6785 3.21027 39.6605 4.1689C40.1376 5.59123 40.7618 6.95113 41.5599 8.23524C43.223 10.9016 45.3855 13.1443 48.6894 13.4653C50.8117 13.6704 54.9494 12.9659 54.7845 10.1079ZM30.5513 0C27.2296 0 24.3805 2.0198 23.1677 4.90012C21.9505 2.0198 19.1014 0 15.7796 0C11.3566 0 7.76733 3.58926 7.76733 8.01231C7.76733 12.4353 11.3566 16.0246 15.7796 16.0246C19.1014 16.0246 21.9505 14.0048 23.1633 11.1245C24.376 14.0048 27.2252 16.0246 30.5469 16.0246C34.9699 16.0246 38.5592 12.4353 38.5592 8.01231C38.5592 3.58926 34.9744 0 30.5513 0Z" fill="#018390"/>
</svg>
