<svg width="69" height="40" viewBox="0 0 69 40" fill="none" xmlns="http://www.w3.org/2000/svg">
<path d="M24.8818 40H2.99544H0L1.6349 37.4825L24.837 1.68951C24.9658 1.46014 25.1561 1.25874 25.3913 1.11329C26.1583 0.637762 27.1605 0.872727 27.6365 1.63357L36.6172 15.9776L38.504 18.9874L37.5242 20.4979L35.2342 16.8392C33.8625 16.4308 31.9533 21.8182 30.5031 21.6112C28.5043 21.3259 26.2423 14.6573 24.8146 16.3972L19.9379 22.3385L14.826 20.1287L2.99544 38.3664H25.9344L24.8818 40ZM66.6612 39.8769H33.465H31.287L32.474 38.0476L41.1915 24.5986L41.6003 23.9664L49.3156 12.0615C49.4108 11.8937 49.5452 11.7483 49.7188 11.642C50.2731 11.2951 51.0065 11.4685 51.348 12.0224L57.8708 22.4336L67.6242 38.0028C67.6522 38.042 67.6802 38.0811 67.7026 38.1259L68.8 39.8769H66.6612ZM33.465 38.6909H66.6612L56.8686 23.0545C55.872 22.758 54.4891 26.6685 53.4309 26.5175C51.9807 26.3105 50.3346 21.4713 49.2988 22.7301L45.7603 27.0434L42.0482 25.4378L33.465 38.6909ZM42.2105 0C44.7861 0 46.8801 2.08671 46.8801 4.66573C46.8801 7.24476 44.7917 9.33147 42.2105 9.33147C39.635 9.33147 37.541 7.24476 37.541 4.66573C37.541 2.08671 39.6294 0 42.2105 0Z" fill="#018390"/>
</svg>
