<svg width="53" height="36" viewBox="0 0 53 36" fill="none" xmlns="http://www.w3.org/2000/svg">
<path d="M43.3735 31.6632C41.8554 31.6632 40.7711 30.7958 40.7711 30.7958C39.253 29.0608 37.0843 28.1934 34.6988 28.1934C32.3132 28.1934 30.1446 29.0608 28.6265 30.7958C28.6265 30.7958 27.5422 31.6632 26.0241 31.6632C24.506 31.6632 23.4217 30.7958 23.4217 30.7958C21.9036 29.0608 19.7349 28.1934 17.3494 28.1934C14.5301 28.1934 11.2771 30.7958 11.2771 30.7958C10.6265 31.2295 9.75904 31.6632 8.6747 31.6632C7.15663 31.6632 6.07229 30.7958 6.07229 30.7958C4.55422 29.0608 2.38554 28.1934 0 28.1934V32.5307C0.86747 32.5307 1.95181 32.9644 2.60241 33.3982C2.60241 33.3982 6.28916 36.0006 8.6747 36.0006C11.0602 36.0006 13.012 34.9163 14.747 33.3982C14.747 33.3982 16.2651 32.5307 17.3494 32.5307C18.4337 32.5307 19.3012 32.9644 19.9518 33.3982C19.9518 33.3982 23.6386 36.0006 26.0241 36.0006C29.2771 36.0006 32.0964 33.3982 32.0964 33.3982C32.747 32.9644 33.6145 32.5307 34.6988 32.5307C35.7831 32.5307 36.6506 32.9644 37.3012 33.3982C37.3012 33.3982 40.9879 36.0006 43.3735 36.0006C45.759 36.0006 47.7108 34.9163 49.4458 33.3982C49.4458 33.3982 50.9639 32.5307 52.0482 32.5307V28.1934C49.2289 28.1934 45.9759 30.7958 45.9759 30.7958C45.3253 31.2295 44.241 31.6632 43.3735 31.6632Z" fill="#018390"/>
<path d="M43.3735 25.1564C40.9879 25.1564 37.3012 22.554 37.3012 22.554C36.6506 22.1203 35.5663 21.6865 34.6988 21.6865C33.8313 21.6865 32.747 22.1203 32.0964 22.554C32.0964 22.554 29.2771 25.1564 26.0241 25.1564C23.6386 25.1564 19.9518 22.554 19.9518 22.554C19.3012 22.1203 18.2169 21.6865 17.3494 21.6865C16.4819 21.6865 14.747 22.554 14.747 22.554C13.012 24.0721 11.0602 25.1564 8.6747 25.1564C6.28916 25.1564 2.60241 22.554 2.60241 22.554C1.95181 22.1203 0.86747 21.6865 0 21.6865V23.8552C0.86747 23.8552 1.95181 24.2889 2.60241 24.7227C2.60241 24.7227 6.28916 27.3251 8.6747 27.3251C11.0602 27.3251 13.012 26.2407 14.747 24.7227C14.747 24.7227 16.2651 23.8552 17.3494 23.8552C18.4337 23.8552 19.3012 24.2889 19.9518 24.7227C19.9518 24.7227 23.6386 27.3251 26.0241 27.3251C29.2771 27.3251 32.0964 24.7227 32.0964 24.7227C32.747 24.2889 33.6145 23.8552 34.6988 23.8552C35.7831 23.8552 36.6506 24.2889 37.3012 24.7227C37.3012 24.7227 40.9879 27.3251 43.3735 27.3251C45.759 27.3251 47.7108 26.2407 49.4458 24.7227C49.4458 24.7227 50.9639 23.8552 52.0482 23.8552V21.6865C51.1807 21.6865 49.4458 22.554 49.4458 22.554C47.7108 24.0721 45.759 25.1564 43.3735 25.1564Z" fill="#018390"/>
<path d="M43.3735 18.6505C40.9879 18.6505 37.3012 16.0481 37.3012 16.0481C36.6506 15.6144 35.5663 15.1807 34.6988 15.1807C33.8313 15.1807 32.747 15.6144 32.0964 16.0481C32.0964 16.0481 29.2771 18.6505 26.0241 18.6505C23.6386 18.6505 19.9518 16.0481 19.9518 16.0481C19.3012 15.6144 18.2169 15.1807 17.3494 15.1807C16.4819 15.1807 14.747 16.0481 14.747 16.0481C13.012 17.5662 11.0602 18.6505 8.6747 18.6505C6.28916 18.6505 2.60241 16.0481 2.60241 16.0481C1.95181 15.6144 0.86747 15.1807 0 15.1807V17.3493C0.86747 17.3493 1.95181 17.7831 2.60241 18.2168C2.60241 18.2168 6.28916 20.8192 8.6747 20.8192C11.0602 20.8192 13.012 19.7349 14.747 18.2168C14.747 18.2168 16.2651 17.3493 17.3494 17.3493C18.4337 17.3493 19.3012 17.7831 19.9518 18.2168C19.9518 18.2168 23.6386 20.8192 26.0241 20.8192C29.2771 20.8192 32.0964 18.2168 32.0964 18.2168C32.747 17.7831 33.6145 17.3493 34.6988 17.3493C35.7831 17.3493 36.6506 17.7831 37.3012 18.2168C37.3012 18.2168 40.9879 20.8192 43.3735 20.8192C45.759 20.8192 47.7108 19.7349 49.4458 18.2168C49.4458 18.2168 50.9639 17.3493 52.0482 17.3493V15.1807C51.1807 15.1807 49.4458 16.0481 49.4458 16.0481C47.7108 17.5662 45.759 18.6505 43.3735 18.6505Z" fill="#018390"/>
<path d="M43.3735 12.1447C40.9879 12.1447 37.3012 9.54227 37.3012 9.54227C36.6506 9.10854 35.5663 8.6748 34.6988 8.6748C33.8313 8.6748 32.747 9.10854 32.0964 9.54227C32.0964 9.54227 29.2771 12.1447 26.0241 12.1447C23.6386 12.1447 19.9518 9.54227 19.9518 9.54227C19.3012 9.10854 18.2169 8.6748 17.3494 8.6748C16.4819 8.6748 14.747 9.54227 14.747 9.54227C13.012 11.0603 11.0602 12.1447 8.6747 12.1447C6.28916 12.1447 2.60241 9.54227 2.60241 9.54227C1.95181 9.10854 0.86747 8.6748 0 8.6748V10.8435C0.86747 10.8435 1.95181 11.2772 2.60241 11.7109C2.60241 11.7109 6.28916 14.3134 8.6747 14.3134C11.0602 14.3134 13.012 13.229 14.747 11.7109C14.747 11.7109 16.4819 10.8435 17.3494 10.8435C18.2169 10.8435 19.3012 11.2772 19.9518 11.7109C19.9518 11.7109 23.6386 14.3134 26.0241 14.3134C29.2771 14.3134 32.0964 11.7109 32.0964 11.7109C32.747 11.2772 33.8313 10.8435 34.6988 10.8435C35.5663 10.8435 36.6506 11.2772 37.3012 11.7109C37.3012 11.7109 40.9879 14.3134 43.3735 14.3134C45.759 14.3134 47.7108 13.229 49.4458 11.7109C49.4458 11.7109 50.9639 10.8435 52.0482 10.8435V8.6748C51.1807 8.6748 49.4458 9.54227 49.4458 9.54227C47.7108 11.0603 45.759 12.1447 43.3735 12.1447Z" fill="#018390"/>
<path d="M45.9759 2.60241C45.3253 3.03614 44.4578 3.46988 43.3735 3.46988C41.8554 3.46988 40.7711 2.60241 40.7711 2.60241C39.253 0.867469 37.0843 0 34.6988 0C32.3132 0 30.1446 0.867469 28.6265 2.60241C28.6265 2.60241 27.5422 3.46988 26.0241 3.46988C24.506 3.46988 23.4217 2.60241 23.4217 2.60241C21.9036 0.867469 19.7349 0 17.3494 0C14.5301 0 11.2771 2.60241 11.2771 2.60241C10.6265 3.03614 9.54217 3.46988 8.6747 3.46988C7.15663 3.46988 6.07229 2.60241 6.07229 2.60241C4.55422 0.867469 2.38554 0 0 0V4.33735C0.86747 4.33735 1.95181 4.77108 2.60241 5.20482C2.60241 5.20482 6.28916 7.80723 8.6747 7.80723C11.0602 7.80723 13.012 6.72289 14.747 5.20482C14.747 5.20482 16.4819 4.33735 17.3494 4.33735C18.2169 4.33735 19.3012 4.77108 19.9518 5.20482C19.9518 5.20482 23.6386 7.80723 26.0241 7.80723C29.2771 7.80723 32.0964 5.20482 32.0964 5.20482C32.747 4.77108 33.8313 4.33735 34.6988 4.33735C35.5663 4.33735 36.6506 4.77108 37.3012 5.20482C37.3012 5.20482 40.9879 7.80723 43.3735 7.80723C45.759 7.80723 47.7108 6.72289 49.4458 5.20482C49.4458 5.20482 50.9639 4.33735 52.0482 4.33735V0C49.2289 0 45.9759 2.60241 45.9759 2.60241Z" fill="#018390"/>
</svg>
