<svg width="48" height="50" viewBox="0 0 48 50" fill="none" xmlns="http://www.w3.org/2000/svg">
<path d="M43.2979 31.0304C43.363 31.0304 43.424 31.0386 43.485 31.0467C43.8838 30.355 44.2459 29.6266 44.5715 28.8657C44.5796 28.8494 44.5837 28.8372 44.5918 28.8209C45.0842 27.6613 45.4544 26.4568 45.7027 25.2076C45.898 24.2392 46.016 23.2464 46.0607 22.2291H40.2054C40.0996 25.2036 39.2126 28.1333 37.5565 31.0263H43.2979V31.0304ZM4.49966 45.3737C4.50373 44.3484 5.0856 43.3474 6.02961 42.2284L0.552701 38.7656C0.206834 38.6151 0.214972 38.4035 0.414354 38.1553L1.57403 37.1665C1.78562 37.0363 2.00941 36.9793 2.24949 37.0485L9.01221 38.1919L13.4108 33.3253L0.2638 24.4223C-0.0698602 24.227 -0.0983434 24.0073 0.243455 23.7509L2.13962 22.2372L19.2865 27.055L24.3525 21.6391C26.0533 20.1702 27.7013 19.511 28.9708 19.8243C29.6707 19.9952 29.9148 20.2068 30.1305 20.8619C30.5496 22.1477 29.8985 23.873 28.3604 25.6512L22.9486 30.713L27.7664 47.8599L26.2527 49.7561C25.9963 50.0979 25.7766 50.0694 25.5813 49.7398L16.6783 36.5887L11.8117 40.9873L12.9551 47.7501C13.0202 47.9901 12.9673 48.2139 12.8371 48.4255L11.8483 49.5852C11.6001 49.7846 11.3885 49.7927 11.238 49.4468L7.77523 43.9699C6.64811 44.918 5.64713 45.4999 4.62173 45.4999C4.52 45.4958 4.49966 45.4633 4.49966 45.3737ZM42.2765 32.8981H36.3764C34.761 35.2378 32.6411 37.5531 30.0206 39.8399L29.4591 37.846C31.2739 36.2022 32.812 34.5542 34.0774 32.8981H28.0675L27.7582 31.7995L28.5802 31.0304H35.3836C37.2309 28.1211 38.2238 25.1873 38.3418 22.2332H34.7732C34.8668 21.6025 34.879 20.9758 34.8058 20.3655H38.3011C38.0569 17.4765 36.9868 14.5468 35.0703 11.5682H27.5792V15.2548C26.9973 15.3524 26.4155 15.5193 25.8295 15.7471C25.7888 15.7634 25.7522 15.7797 25.7115 15.796V11.5723H18.2204C16.3039 14.5468 15.2338 17.4805 14.9896 20.3696H19.9538L18.2082 22.2372H18.1838L11.5391 20.3696H13.126C13.3417 17.4561 14.3101 14.5264 16.0394 11.5723H9.79754C9.40284 12.26 9.04477 12.9802 8.71924 13.733C8.71111 13.7492 8.70704 13.7615 8.6989 13.7777C8.20654 14.9374 7.83626 16.1418 7.58805 17.391C7.47005 17.981 7.38053 18.5751 7.31543 19.1814L5.4925 18.6687C5.55761 18.1153 5.64713 17.566 5.75292 17.0248C6.02555 15.6617 6.43652 14.3352 6.98177 13.0453C6.98991 13.029 6.99397 13.0128 7.00211 12.9924C7.5555 11.7066 8.21061 10.4981 8.97152 9.36284C9.73243 8.23165 10.5951 7.18184 11.5594 6.22155C12.5197 5.25719 13.5695 4.39455 14.7007 3.63364C15.836 2.87273 17.0485 2.21355 18.3303 1.66423H18.3344C19.6364 1.10678 20.9792 0.691735 22.3586 0.415041C23.7543 0.138347 25.1785 0 26.6474 0C28.1122 0 29.5405 0.138347 30.9239 0.415041C32.2871 0.687666 33.6136 1.09864 34.9034 1.64389C34.9197 1.65203 34.9401 1.65609 34.9563 1.66423C36.2422 2.21762 37.4507 2.87273 38.5859 3.63364C39.7212 4.39455 40.7669 5.25719 41.7272 6.22155C42.6956 7.18184 43.5542 8.23165 44.3151 9.36284C45.076 10.4981 45.7352 11.7107 46.2845 12.9924V12.9965C46.842 14.2986 47.257 15.6413 47.5337 17.0208C47.8104 18.4042 47.9488 19.8324 47.9488 21.2973C47.9488 22.7621 47.8104 24.1904 47.5337 25.5738C47.2611 26.937 46.8501 28.2635 46.3049 29.5493C46.3008 29.5656 46.2927 29.5818 46.2845 29.6022C45.7311 30.888 45.076 32.0965 44.3151 33.2318C43.5542 34.3629 42.6956 35.4128 41.7272 36.3731C40.7629 37.3374 39.7171 38.2 38.5859 38.961C37.4507 39.7219 36.2381 40.381 34.9563 40.9304H34.9523C33.6502 41.4878 32.3074 41.9029 30.928 42.1796C30.8507 42.1958 30.7734 42.208 30.7001 42.2243L30.1915 40.4217C30.3136 40.4014 30.4397 40.377 30.5618 40.3526C31.8273 40.1003 33.048 39.7219 34.2198 39.2214C35.4121 38.7087 36.5229 38.1065 37.5524 37.4188C38.5819 36.7271 39.534 35.9417 40.4129 35.0628L40.417 35.0588C41.0884 34.3874 41.7109 33.6671 42.2765 32.8981ZM11.0142 9.70463H17.2317C19.0017 7.15335 21.3454 4.5858 24.267 2.00196C23.7502 2.063 23.2375 2.14438 22.7289 2.2461C21.4634 2.49838 20.2468 2.8768 19.0709 3.37729C17.8786 3.88999 16.7678 4.49221 15.7383 5.17987C14.7089 5.87161 13.7567 6.65693 12.8778 7.53584L12.8737 7.53991C12.2023 8.21537 11.5798 8.93966 11.0142 9.70463ZM29.0196 2.00196C31.9412 4.5858 34.285 7.14928 36.055 9.70463H42.2765C41.7109 8.93966 41.0884 8.21537 40.4129 7.53991L40.4088 7.53584C39.534 6.65693 38.5778 5.87161 37.5483 5.17987C36.5189 4.49221 35.408 3.88999 34.2158 3.37729C34.1995 3.36916 34.1873 3.36509 34.171 3.35695C33.0114 2.8646 31.8069 2.49431 30.5577 2.2461C30.0532 2.14438 29.5405 2.063 29.0196 2.00196ZM43.4891 11.5723H37.2513C38.9847 14.5224 39.949 17.4561 40.1647 20.3696H46.0567C46.0119 19.3523 45.8898 18.3595 45.6986 17.391C45.4463 16.1256 45.0679 14.9089 44.5674 13.733C44.2419 12.9802 43.8879 12.26 43.4891 11.5723ZM27.5792 3.21453V9.70463H33.7601C32.1365 7.56433 30.0776 5.3996 27.5792 3.21453ZM25.7115 9.70463V3.21453C23.2131 5.3996 21.1542 7.56433 19.5307 9.70463H25.7115Z" fill="#018390"/>
</svg>
