<svg width="35" height="50" viewBox="0 0 35 50" fill="none" xmlns="http://www.w3.org/2000/svg">
<path d="M7.34852 18.8907C7.4421 18.8337 7.54382 18.8093 7.64554 18.8174C7.46651 17.8979 7.49499 17.0109 7.53161 15.9775C7.62926 13.2718 8.31687 11.1073 10.4489 9.23158C13.6672 6.39976 20.0347 6.15564 23.5827 8.59279C24.1075 8.95491 24.5958 9.38212 25.0352 9.88664C26.4755 11.5345 27.7531 15.1597 27.7246 17.3934C27.7205 17.9101 27.6351 18.435 27.4561 18.968C27.4479 19.0209 27.4357 19.0778 27.4235 19.1429C27.81 19.3871 28.1152 19.6882 28.339 20.0259C28.6726 20.5304 28.815 21.1163 28.7825 21.7306C28.7499 22.3206 28.5465 22.9431 28.1803 23.5453C27.7531 24.2492 27.1021 24.9327 26.2354 25.5267C25.4787 27.2926 24.4167 29.0665 23.1392 30.4824C22.061 31.6786 20.8241 32.6266 19.4733 33.123C18.0899 33.6316 16.6008 33.6723 15.0587 33.0213C14.2572 32.6877 13.4475 32.1628 12.6297 31.4304C11.8811 30.755 11.2057 29.925 10.5913 28.9526C10.0257 28.0534 9.51307 27.0362 9.04924 25.9092C8.8458 25.8482 8.65051 25.7749 8.46741 25.6895C8.20702 25.5674 7.96696 25.421 7.74725 25.2541C7.10847 24.7659 6.68532 24.0986 6.43713 23.3622C6.16453 22.5444 6.11163 21.6371 6.22556 20.803C6.28252 20.3758 6.40051 20.0014 6.5836 19.6882C6.7789 19.3586 7.03116 19.0941 7.34852 18.8907ZM25.0433 35.4259C24.7463 35.3445 24.5673 35.0394 24.6487 34.7424C24.73 34.4453 25.0352 34.2663 25.3322 34.3477C25.6862 34.4413 25.7635 34.4616 25.853 34.486C28.282 35.1289 30.3855 35.6904 32.1717 37.859C33.6568 39.6614 33.7992 41.0122 34.0026 42.9205C34.0352 43.2134 34.0677 43.5226 34.1206 43.9498L34.5437 47.3187C34.5763 47.5751 34.4298 47.807 34.206 47.9046C31.2806 49.3897 24.6893 50 18.1021 50C10.3309 50 2.49049 49.1374 0.614814 47.8517C0.431722 47.7256 0.346279 47.514 0.378829 47.3065L1.09492 42.5502C1.54248 39.5719 2.47421 37.7776 3.93488 36.5977C5.3752 35.434 7.27528 34.9214 9.70837 34.4942C10.0135 34.4413 10.3024 34.6447 10.3553 34.9499C10.4082 35.255 10.2048 35.5439 9.8996 35.5968C7.6374 35.9955 5.88379 36.4594 4.63469 37.4684C3.40188 38.4652 2.60441 40.0479 2.20161 42.717L1.54248 47.099C2.56779 47.6117 4.74048 48.0389 7.5072 48.3481C4.06101 41.7649 14.4118 36.7564 17.3942 44.9345C21.1821 36.6465 30.8168 41.9114 27.3381 48.0836C27.2689 48.2057 27.1916 48.3237 27.1102 48.4376C29.7386 48.1447 31.9601 47.693 33.3923 47.0583L33.022 44.0882C32.9854 43.783 32.9447 43.4006 32.9041 43.0384C32.721 41.3255 32.5948 40.113 31.3254 38.571C29.7712 36.6831 27.8263 36.1664 25.5845 35.5724L25.0433 35.4259ZM12.0397 34.4128C12.4181 34.4128 12.7273 34.722 12.7273 35.1004C12.7273 35.4788 12.4181 35.788 12.0397 35.788C11.6613 35.788 11.3521 35.4788 11.3521 35.1004C11.3481 34.722 11.6573 34.4128 12.0397 34.4128ZM22.8503 34.4128C22.4719 34.4128 22.1627 34.722 22.1627 35.1004C22.1627 35.4788 22.4719 35.788 22.8503 35.788C23.2287 35.788 23.5379 35.4788 23.5379 35.1004C23.542 34.722 23.2327 34.4128 22.8503 34.4128ZM21.5239 35.9263C21.1455 35.9263 20.8363 36.2356 20.8363 36.614C20.8363 36.9924 21.1455 37.3016 21.5239 37.3016C21.9023 37.3016 22.2115 36.9924 22.2115 36.614C22.2115 36.2356 21.9023 35.9263 21.5239 35.9263ZM19.7499 36.9801C19.3715 36.9801 19.0623 37.2894 19.0623 37.6678C19.0623 38.0461 19.3715 38.3554 19.7499 38.3554C20.1283 38.3554 20.4375 38.0461 20.4375 37.6678C20.4416 37.2894 20.1324 36.9801 19.7499 36.9801ZM17.447 37.1429L18.631 38.3269L17.447 39.5109L16.2631 38.3269L17.447 37.1429ZM17.447 37.92L17.8539 38.3269L17.447 38.7338L17.0402 38.3269L17.447 37.92ZM15.1401 36.9801C15.5185 36.9801 15.8277 37.2894 15.8277 37.6678C15.8277 38.0461 15.5185 38.3554 15.1401 38.3554C14.7617 38.3554 14.4525 38.0461 14.4525 37.6678C14.4484 37.2894 14.7576 36.9801 15.1401 36.9801ZM13.3661 35.9263C13.7445 35.9263 14.0537 36.2356 14.0537 36.614C14.0537 36.9924 13.7445 37.3016 13.3661 37.3016C12.9877 37.3016 12.6785 36.9924 12.6785 36.614C12.6785 36.2356 12.9877 35.9263 13.3661 35.9263ZM3.57683 34.1809C3.8413 34.3396 3.92267 34.6854 3.76399 34.9499C3.60531 35.2143 3.25947 35.2957 2.99501 35.137L0.268974 33.4689C0.0411261 33.3305 -0.0524541 33.0538 0.02892 32.8138C0.480546 31.4874 0.903692 30.161 1.29022 28.8305C1.67675 27.4879 2.03479 26.1126 2.35622 24.6927C2.41725 24.416 2.48642 24.1027 2.55965 23.7528C2.62069 23.4558 2.68578 23.1425 2.75088 22.8088C3.08859 21.0959 3.27575 19.3016 3.46291 17.5033C3.87385 13.5241 4.29292 9.51639 6.30693 6.19226C7.65774 3.96668 9.52528 2.20493 11.8566 1.13486C14.0212 0.146161 16.5723 -0.244435 19.4692 0.154298C22.061 0.508276 24.6446 1.70854 27.216 4.0155C27.2445 4.03991 27.2689 4.06839 27.2933 4.09687C27.9443 4.97571 28.5668 5.86676 29.0876 6.78629C29.6206 7.72209 30.0438 8.69451 30.296 9.71982C30.9592 12.4459 31.2481 15.3224 31.5451 18.2844C32.0211 23.0326 32.5216 27.9964 34.6292 32.769C34.739 33.0254 34.6495 33.3142 34.4217 33.4648L31.8625 35.2713C31.6102 35.4503 31.2603 35.3893 31.0853 35.137C30.9063 34.8848 30.9674 34.5349 31.2196 34.3599L33.4249 32.8057C31.3986 28.0127 30.9063 23.1018 30.4344 18.3984C30.1414 15.477 29.8566 12.6371 29.2137 9.98836C28.994 9.07697 28.6075 8.2022 28.1193 7.3437C27.631 6.4852 27.0492 5.64705 26.4307 4.81297C24.0506 2.68503 21.6826 1.58241 19.3227 1.26099C16.6455 0.894803 14.2979 1.24878 12.3245 2.15203C10.2048 3.12445 8.49996 4.73159 7.26308 6.77001C5.37927 9.87443 4.97647 13.76 4.57773 17.6172C4.3865 19.4522 4.19934 21.2831 3.8535 23.0245C3.79247 23.3296 3.72737 23.6511 3.65414 23.9888C3.59311 24.2736 3.52394 24.5909 3.44663 24.9408C3.1252 26.3608 2.76309 27.7605 2.36436 29.1398C2.00631 30.3807 1.62792 31.581 1.23326 32.7528L3.57683 34.1809ZM7.88559 19.7085L7.87338 19.7166C7.69436 19.8306 7.54789 19.9852 7.43803 20.1764C7.32004 20.3839 7.24273 20.6362 7.20205 20.9413C7.10847 21.6371 7.14915 22.3898 7.37293 23.0611C7.56009 23.6185 7.87338 24.123 8.34942 24.4852C8.51624 24.6113 8.69526 24.7211 8.88649 24.8106C9.08586 24.9042 9.29743 24.9775 9.52935 25.0344C9.68803 25.071 9.81416 25.185 9.87112 25.3274C10.3349 26.491 10.8517 27.5326 11.4213 28.4399C11.9868 29.335 12.6053 30.0959 13.2888 30.7103C14.0171 31.3694 14.7373 31.8332 15.4412 32.1262C16.735 32.6714 17.9841 32.6388 19.1396 32.2116C20.3318 31.7722 21.4384 30.9178 22.4149 29.8355C23.6518 28.4684 24.6731 26.7392 25.3932 25.0222C25.438 24.9164 25.5153 24.831 25.6129 24.7822C26.4023 24.2573 26.9841 23.6592 27.3503 23.0489C27.631 22.5851 27.7856 22.1212 27.81 21.6859C27.8344 21.2749 27.7409 20.8925 27.5293 20.5711C27.4154 20.4002 27.2689 20.2415 27.0858 20.1032C26.7156 20.9372 26.1012 22.0399 25.2996 23.1343V18.1217C23.0049 17.0598 21.5035 14.7243 20.7386 11.209C19.8232 17.8939 11.6125 17.605 9.54562 18.8256V22.7275C9.15502 22.1782 8.80512 21.6167 8.48776 21.0471C8.22736 20.5751 8.02799 20.1316 7.88559 19.7085ZM14.5298 3.40926C16.6414 1.97708 19.0501 2.29444 21.0356 3.81206C21.5605 4.2108 22.004 4.70311 22.358 5.29714C22.6591 5.80573 23.188 6.83918 22.2034 6.99786C21.8168 7.05889 21.1374 6.52996 20.6125 6.36314C19.9371 6.1475 19.2454 6.0051 18.5619 5.93186C17.2802 5.79759 16.023 5.90338 14.9407 6.20039C14.3508 6.36314 13.7811 6.56251 13.2359 6.81477C12.9796 6.93276 12.4629 7.2786 12.3164 6.83511C11.9828 5.80573 13.7689 3.92192 14.5298 3.40926Z" fill="#018390"/>
</svg>
