<svg width="47" height="50" viewBox="0 0 47 50" fill="none" xmlns="http://www.w3.org/2000/svg">
<path fill-rule="evenodd" clip-rule="evenodd" d="M6.18704 5.45513C7.13913 4.10025 8.31499 2.95286 9.67802 2.08622C11.0044 1.24399 12.4895 0.666233 14.1089 0.422109C16.5867 0.047785 17.9375 0.430246 19.5121 0.881876C20.2445 1.09345 21.0379 1.31723 22.0185 1.4637C22.405 1.52067 22.7753 1.56135 23.1171 1.57763C23.4588 1.5939 23.8006 1.58984 24.1464 1.56542C25.2979 1.47998 26.1076 1.15855 26.8928 0.845257C28.443 0.226809 29.9281 -0.363157 33.118 0.275634C34.5624 0.564514 35.9173 1.17889 37.1705 2.02926C38.5172 2.94472 39.7297 4.11652 40.7998 5.44293C41.2026 5.93931 41.1253 6.66762 40.6289 7.07042C40.4417 7.22096 40.222 7.30641 39.9982 7.32268C41.8251 8.95831 43.2858 10.8543 44.3681 12.9945C46.0037 16.221 46.7808 19.9968 46.671 24.3015C46.6547 24.9362 46.1298 25.4408 45.491 25.4286C45.4219 25.4286 45.3568 25.4204 45.2917 25.4082V25.4123L43.6438 25.0827C44.5918 28.4028 44.9702 31.5276 44.4657 34.3513C43.8473 37.8219 41.9309 40.7921 38.1795 43.0502C37.6668 43.3595 37.0077 43.2171 36.6619 42.7451L35.3843 41.024C35.132 41.675 34.8431 42.2975 34.5136 42.8916C33.8178 44.1488 32.9593 45.2596 31.9381 46.2198C29.2161 48.7831 26.372 50.0241 23.4954 49.9996C20.5863 49.9752 17.7178 48.6529 14.9959 46.0855C13.9787 45.1294 13.1161 44.0634 12.3756 42.9078C11.9728 42.2772 11.6025 41.6221 11.2648 40.9426C11.0329 41.3617 10.8742 41.8174 10.7725 42.3016C10.6382 42.9241 10.0239 43.3229 9.39727 43.1886C9.29149 43.1642 9.18977 43.1276 9.09619 43.0787C6.10567 41.5448 3.88007 39.3274 2.8344 36.0602C1.92708 33.1958 1.94335 29.5705 3.18432 24.9322C2.67572 25.0664 2.19154 25.2984 1.78874 25.5628C1.25574 25.9127 0.539638 25.7622 0.189727 25.2292C0.0473211 25.0095 -0.0137099 24.7613 0.002565 24.5212C-0.0421911 20.3711 0.576257 16.6197 2.12644 13.381C3.24535 11.0415 4.83622 8.9868 7.00079 7.26165C6.53288 7.20876 6.13008 6.87105 6.01209 6.38687C5.93071 6.05324 6.00395 5.7196 6.18704 5.45513ZM15.6265 21.3802C15.3987 21.6039 15.0325 21.5958 14.8128 21.368C14.589 21.1401 14.5971 20.7739 14.825 20.5542C16.127 19.2848 17.197 18.8575 18.1166 18.9715C19.0687 19.0895 19.7807 19.7649 20.3788 20.6925C20.5497 20.9611 20.4724 21.3191 20.2038 21.49C19.9353 21.6609 19.5772 21.5836 19.4064 21.3151C18.9832 20.66 18.5194 20.188 17.9742 20.1189C17.3964 20.0456 16.6437 20.3915 15.6265 21.3802ZM17.311 36.1537C18.0962 35.7876 18.7513 35.4702 19.325 35.1976C21.4082 34.1967 22.4416 33.6962 23.5646 33.7084C24.6794 33.7166 25.6844 34.2211 27.6903 35.2179C28.3047 35.5231 29.0126 35.8771 29.7125 36.2148C33.1587 34.213 33.8178 31.0841 32.4141 27.113C34.3427 25.2414 36.552 23.679 36.5602 20.9652C36.5642 19.2441 36.0231 17.7427 35.014 16.2861C32.3124 12.3923 28.5407 11.7169 23.3327 13.0474C17.2377 11.4687 12.518 12.6405 10.5691 19.183C9.48679 22.5601 10.9637 25.0176 14.0234 26.9055C12.8476 31.8083 14.0112 34.8355 17.311 36.1537ZM28.7889 37.0489C28.1338 36.7315 27.6252 36.4792 27.1736 36.2555C25.3223 35.3359 24.3946 34.8721 23.5565 34.8639C22.702 34.8558 21.75 35.3156 19.8254 36.2392C19.3616 36.463 18.8449 36.7112 18.2712 36.9838C18.9954 38.0538 19.8539 38.8554 20.9077 39.2623C22.4091 39.9824 23.9715 39.84 25.5624 39.2623C26.7667 38.9083 27.8327 38.1474 28.7889 37.0489ZM21.1559 29.2857C20.8833 29.0294 20.7857 28.7975 20.8874 28.594C21.1071 28.1587 21.6523 28.24 22.0551 28.24L25.2328 28.2278C25.5746 28.2278 25.7495 28.2034 25.9326 28.5289C26.0384 28.7202 25.9082 28.9968 25.5542 29.3549L23.3205 31.2631L21.1559 29.2857ZM31.9503 20.5542C32.1781 20.778 32.1822 21.1401 31.9625 21.368C31.7387 21.5958 31.3766 21.5999 31.1487 21.3802C30.1071 20.363 29.3422 20.0293 28.7563 20.1229C28.1948 20.2124 27.7229 20.7373 27.2834 21.4453C27.1166 21.7179 26.7586 21.8033 26.49 21.6365C26.2174 21.4697 26.132 21.1116 26.2988 20.8431C26.8969 19.8707 27.6089 19.1424 28.5692 18.9877C29.509 18.8291 30.6076 19.2441 31.9503 20.5542Z" fill="#018390"/>
</svg>
