<svg width="66" height="50" viewBox="0 0 66 50" fill="none" xmlns="http://www.w3.org/2000/svg">
<path fill-rule="evenodd" clip-rule="evenodd" d="M8.53187 30.5972C9.15641 23.2774 10.432 17.2543 15.6718 14.8673C18.0588 22.0812 16.9843 29.0465 14.6767 36.6786C7.38335 37.7001 0.77803 40.05 0.77803 44.7129C4.29769 45.6709 6.80115 44.3371 8.90236 41.5585C13.6023 45.6391 16.598 46.8829 21.3244 41.3203C24.41 46.703 30.5178 45.4433 33.7517 41.4896C37.3243 46.1261 43.4956 46.486 46.0943 40.7275C49.8521 46.5124 55.7006 45.6603 58.4634 41.0821C60.2206 43.2786 61.1362 44.7023 64.1055 44.9299C62.1524 38.6104 55.1555 35.6518 46.1631 35.313C44.7976 30.7137 44.1889 26.5007 45.6339 22.1395C48.8677 23.6108 49.651 27.3263 50.0374 31.8463L50.0321 31.8516C51.3024 28.7183 52.0857 25.8602 50.302 22.6264C52.001 22.8063 53.6047 23.8172 55.3036 25.3733C53.9011 22.367 51.6252 20.0806 47.5604 20.594C49.8257 19.075 52.5091 19.3343 55.0972 19.9377C52.4032 17.0955 49.4711 15.9046 45.9567 19.1279C45.835 17.1696 46.6448 15.4706 47.7192 13.8405C45.4433 14.7455 43.7443 15.7353 44.2736 19.8583C40.3835 16.5715 36.0328 17.9635 34.5085 23.7167C37.3613 21.1921 40.3993 19.9112 43.6385 20.9115C37.9753 23.0339 36.4563 26.3048 38.8433 30.756C40.5423 26.4583 42.3206 23.7537 44.3107 22.4994C43.2257 25.2357 42.2888 28.2684 43.3739 35.2813C39.8807 35.3554 36.1493 35.7788 32.3438 36.5198C29.9833 36.0593 24.8123 35.8158 19.3237 36.1969C21.0862 24.8176 19.5725 19.9059 17.81 15.4653C21.0439 17.4977 23.9231 21.8801 26.6753 28.8453C30.5443 21.6366 28.0832 16.3333 18.9003 12.8931C24.1507 11.2629 29.0729 13.3482 33.7041 17.4342C31.2324 8.10316 24.1772 5.85375 17.8735 11.1782C18.7309 4.49881 15.9787 2.89512 12.2897 1.42374C14.0257 4.0701 15.3383 6.82232 15.1425 9.99266C9.4528 4.76874 4.69994 6.70059 0.328149 11.3053C4.52528 10.3261 8.8759 9.90798 12.5438 12.3691C5.95961 11.5381 2.27587 15.2483 0 20.1176C2.75222 17.593 5.35094 15.9576 8.10316 15.6612C5.21333 20.901 6.48888 25.5268 8.54245 30.6078L8.53187 30.5972ZM34.6726 11.3582C34.5615 11.5487 34.3233 11.6122 34.1328 11.5064C33.9422 11.3952 33.8787 11.1571 33.9846 10.9665L34.4927 10.0826C34.6038 9.8921 34.842 9.82858 35.0325 9.93444C35.2231 10.0456 35.2866 10.2838 35.1807 10.4743L34.6726 11.3582ZM37.2925 2.64107C38.2717 2.64107 39.1608 3.03802 39.8013 3.67844C40.4417 4.31886 40.8386 5.20804 40.8386 6.18719C40.8386 7.16635 40.4417 8.05552 39.8013 8.69594C39.1608 9.33636 38.2717 9.73332 37.2925 9.73332C36.3134 9.73332 35.4242 9.33636 34.7838 8.69594C34.1433 8.05552 33.7464 7.16635 33.7464 6.18719C33.7464 5.20804 34.1433 4.31886 34.7838 3.67844C35.4295 3.03802 36.3134 2.64107 37.2925 2.64107ZM42.1512 3.02214C42.3418 2.911 42.5852 2.97451 42.6964 3.16505C42.8022 3.35559 42.7387 3.59905 42.5482 3.70491L41.6643 4.21301C41.4738 4.32415 41.2303 4.26064 41.1244 4.0701C41.0133 3.87957 41.0768 3.6361 41.2674 3.53025L42.1512 3.02214ZM43.0881 5.87492C43.3051 5.87492 43.485 6.05487 43.485 6.27188C43.485 6.48888 43.3051 6.66883 43.0881 6.66883H42.0718C41.8548 6.66883 41.6749 6.48888 41.6749 6.27188C41.6749 6.05487 41.8548 5.87492 42.0718 5.87492H43.0881ZM34.1275 1.33377C34.0163 1.14323 34.0798 0.899763 34.2704 0.793908C34.4609 0.682761 34.7044 0.746274 34.8102 0.936812L35.3183 1.8207C35.4295 2.01123 35.366 2.2547 35.1754 2.36055C34.9849 2.4717 34.7414 2.40819 34.6356 2.21765L34.1275 1.33377ZM36.9803 0.396954C36.9803 0.179953 37.1549 0 37.3772 0C37.5942 0 37.7742 0.179953 37.7742 0.396954V1.41316C37.7742 1.63016 37.5942 1.81011 37.3772 1.81011C37.1602 1.81011 36.9803 1.63016 36.9803 1.41316V0.396954ZM39.9177 1.0162C40.0289 0.825665 40.267 0.762152 40.4576 0.868006C40.6481 0.979154 40.7116 1.21733 40.6058 1.40786L40.0977 2.29175C39.9865 2.48229 39.7483 2.5458 39.5578 2.43994C39.3673 2.3288 39.3038 2.09063 39.4096 1.90009L39.9177 1.0162ZM42.4688 8.81238C42.6593 8.92353 42.7229 9.1617 42.617 9.35224C42.5058 9.54278 42.2677 9.60629 42.0771 9.50044L41.1933 8.99233C41.0027 8.88119 40.9392 8.64301 41.0451 8.45248C41.1562 8.26194 41.3944 8.19843 41.5849 8.30428L42.4688 8.81238ZM32.4391 9.35753C32.2486 9.46868 32.0051 9.40517 31.8992 9.21463C31.7881 9.02409 31.8516 8.78063 32.0421 8.67477L32.926 8.16667C33.1166 8.05552 33.36 8.11904 33.4659 8.30957C33.577 8.50011 33.5135 8.74358 33.323 8.84943L32.4391 9.35753ZM31.5023 6.50476C31.2853 6.50476 31.1053 6.3248 31.1053 6.1078C31.1053 5.8908 31.2853 5.71085 31.5023 5.71085H32.5185C32.7355 5.71085 32.9154 5.8908 32.9154 6.1078C32.9154 6.3248 32.7355 6.50476 32.5185 6.50476H31.5023ZM32.1215 3.56729C31.931 3.45615 31.8675 3.21797 31.9733 3.02744C32.0845 2.8369 32.3227 2.77339 32.5132 2.87924L33.3971 3.38734C33.5876 3.49849 33.6511 3.73666 33.5453 3.9272C33.4341 4.11774 33.196 4.18125 33.0054 4.0754L32.1215 3.56729ZM40.4629 11.0459C40.574 11.2364 40.5105 11.4799 40.32 11.5858C40.1294 11.6969 39.886 11.6334 39.7801 11.4429L39.272 10.559C39.1608 10.3684 39.2244 10.125 39.4149 10.0191C39.6054 9.90798 39.8489 9.97149 39.9548 10.162L40.4629 11.0459ZM37.6101 11.9774C37.6101 12.1944 37.4301 12.3744 37.2131 12.3744C36.9961 12.3744 36.8162 12.1944 36.8162 11.9774V10.9612C36.8162 10.7442 36.9961 10.5643 37.2131 10.5643C37.4301 10.5643 37.6101 10.7442 37.6101 10.9612V11.9774ZM0.492223 47.4281C1.28613 47.608 2.11709 47.6874 2.94275 47.6663C4.09127 47.6345 5.22392 47.4122 6.20836 47.0047C7.36218 46.5283 8.42601 45.7609 8.87589 44.57C9.28873 45.7132 10.4214 46.5495 11.5275 47.0047C12.512 47.4122 13.6499 47.6398 14.7932 47.6663C15.9417 47.698 17.1061 47.5339 18.1487 47.1634C19.8212 46.576 20.1759 45.8085 21.2767 44.5118C21.9119 45.872 23.0233 46.6765 24.4047 47.1634C25.4474 47.5286 26.6118 47.6927 27.7603 47.6663C28.9088 47.6345 30.0415 47.4122 31.0259 47.0047C32.1321 46.5495 33.2648 45.7079 33.6776 44.57C34.1275 45.7609 35.2019 46.5283 36.3451 47.0047C37.3296 47.4122 38.4675 47.6398 39.6107 47.6663C40.7593 47.698 41.9237 47.5339 42.9663 47.1634C44.6335 46.576 44.9934 45.8032 46.0943 44.5118C47.1952 45.7979 47.5604 46.576 49.2276 47.1634C50.2703 47.5286 51.4347 47.6927 52.5832 47.6663C53.7317 47.6345 54.8644 47.4122 55.8488 47.0047C56.9973 46.5283 58.0665 45.7662 58.5163 44.57C58.9292 45.7079 60.0618 46.5442 61.168 47.0047C62.1524 47.4122 63.2904 47.6398 64.4336 47.6663C64.6347 47.6715 64.8358 47.6715 65.0317 47.6663V49.9951C63.3803 50.0374 61.7078 49.7569 60.2576 49.1588C59.5061 48.8465 58.9186 48.5448 58.3893 48.1638C57.6748 48.6507 56.9656 49.0688 56.7486 49.1588C54.2186 50.2068 51.006 50.2756 48.4284 49.3652C47.5763 49.0635 46.7877 48.6613 46.0943 48.1426C45.401 48.6613 44.6071 49.0635 43.7602 49.3652C41.1774 50.2756 37.9647 50.2015 35.4348 49.1588C35.2178 49.0688 34.5138 48.6454 33.794 48.1638C33.2648 48.5448 32.6773 48.8518 31.9257 49.1588C29.3958 50.2068 26.1831 50.2756 23.6002 49.3652C22.8487 49.1006 22.113 48.7671 21.462 48.3384C20.594 48.7618 19.5937 49.1323 18.9374 49.3652C16.3598 50.2756 13.1418 50.2015 10.6172 49.1588C9.86563 48.8465 9.27814 48.5448 8.74887 48.1638C8.03435 48.6507 7.32513 49.0688 7.10813 49.1588C5.11277 49.9845 2.6887 50.2015 0.48693 49.8098V47.4281H0.492223Z" fill="#018390"/>
</svg>
