<svg width="43" height="43" viewBox="0 0 43 43" fill="none" xmlns="http://www.w3.org/2000/svg">
<path fill-rule="evenodd" clip-rule="evenodd" d="M8.21 31.6093C7.5324 32.3576 6.75119 33.0049 5.89015 33.5316C5.83542 33.5701 5.77015 33.5908 5.70324 33.5908C5.63633 33.5908 5.57105 33.5701 5.51632 33.5316C4.2874 32.7597 3.19528 31.7888 2.2846 30.6587C1.17237 29.3061 0.424307 27.6915 0.111493 25.9683C-0.177505 24.459 0.0998846 22.896 0.890599 21.5785C1.2197 21.0695 1.63187 20.6194 2.10992 20.2469C3.13836 19.3828 4.43205 18.898 5.77486 18.8733C7.07776 18.893 8.32532 19.4035 9.26861 20.3028C9.63386 20.6333 9.9482 21.0161 10.2014 21.4387C11.0574 22.8367 11.2496 24.6437 10.8653 26.4681C10.4506 28.3815 9.5341 30.15 8.21 31.5918V31.6093ZM5.73992 35.3595C6.43066 35.3588 7.10575 35.5652 7.67807 35.9521C8.25039 36.339 8.69366 36.8886 8.95068 37.5299C9.01346 37.5247 9.07656 37.5247 9.13934 37.5299H11.9134C12.2519 37.5717 12.5634 37.7358 12.7894 37.9913C13.0153 38.2469 13.14 38.5763 13.14 38.9175C13.14 39.2587 13.0153 39.5881 12.7894 39.8436C12.5634 40.0992 12.2519 40.2633 11.9134 40.305H9.13934C9.0537 40.3059 8.96821 40.2977 8.8843 40.2806C8.62691 40.8465 8.22187 41.3325 7.71176 41.6876C7.20165 42.0428 6.60531 42.2539 5.98544 42.2987C5.36558 42.3435 4.74509 42.2204 4.18922 41.9424C3.63335 41.6644 3.16264 41.2416 2.82657 40.7187C2.49049 40.1957 2.30149 39.5918 2.27941 38.9705C2.25734 38.3491 2.40302 37.7334 2.70113 37.1878C2.99924 36.6423 3.43878 36.1872 3.97351 35.8704C4.50825 35.5536 5.11844 35.3868 5.73992 35.3875V35.3595ZM37.561 16.287C38.1853 16.2867 38.7981 16.4553 39.3345 16.775C39.8709 17.0946 40.3109 17.5534 40.6079 18.1028C40.905 18.6522 41.048 19.2717 41.0218 19.8957C40.9956 20.5198 40.8013 21.1251 40.4593 21.6477C40.1173 22.1702 39.6405 22.5906 39.0792 22.8642C38.518 23.1378 37.8932 23.2545 37.2711 23.2019C36.6489 23.1493 36.0526 22.9294 35.5452 22.5655C35.0378 22.2016 34.6381 21.7072 34.3887 21.1346H30.0599C29.8625 21.1609 29.6618 21.1447 29.4713 21.0871C29.2807 21.0295 29.1046 20.9318 28.9548 20.8006C28.805 20.6694 28.685 20.5077 28.6027 20.3263C28.5205 20.1449 28.4779 19.948 28.4779 19.7488C28.4779 19.5497 28.5205 19.3528 28.6027 19.1714C28.685 18.99 28.805 18.8283 28.9548 18.6971C29.1046 18.5658 29.2807 18.4682 29.4713 18.4106C29.6618 18.353 29.8625 18.3368 30.0599 18.363H34.3887C34.658 17.7456 35.1017 17.2203 35.6652 16.8515C36.2287 16.4827 36.8876 16.2865 37.561 16.287ZM26.8072 27.9395C26.6108 27.9153 26.4114 27.9331 26.2224 27.9918C26.0333 28.0505 25.8589 28.1486 25.7106 28.2798C25.5623 28.411 25.4436 28.5722 25.3623 28.7527C25.2809 28.9333 25.2389 29.129 25.2389 29.327C25.2389 29.5251 25.2809 29.7208 25.3623 29.9014C25.4436 30.0819 25.5623 30.2431 25.7106 30.3743C25.8589 30.5055 26.0333 30.6036 26.2224 30.6623C26.4114 30.721 26.6108 30.7388 26.8072 30.7146H30.1438C30.3402 30.7388 30.5396 30.721 30.7286 30.6623C30.9177 30.6036 31.0921 30.5055 31.2404 30.3743C31.3887 30.2431 31.5074 30.0819 31.5887 29.9014C31.67 29.7208 31.7121 29.5251 31.7121 29.327C31.7121 29.129 31.67 28.9333 31.5887 28.7527C31.5074 28.5722 31.3887 28.411 31.2404 28.2798C31.0921 28.1486 30.9177 28.0505 30.7286 27.9918C30.5396 27.9331 30.3402 27.9153 30.1438 27.9395H26.8072ZM24.6865 21.1661C25.0164 21.0799 25.3035 20.876 25.4936 20.5928C25.6837 20.3096 25.7637 19.9667 25.7186 19.6285C25.6735 19.2904 25.5064 18.9805 25.2487 18.757C24.9911 18.5336 24.6606 18.4121 24.3197 18.4155C23.1283 18.5734 22.0095 19.0778 21.1019 19.8659C20.877 20.0715 20.7254 20.3449 20.6701 20.6447C20.6149 20.9444 20.6591 21.2539 20.796 21.5262C20.9328 21.7985 21.1549 22.0186 21.4284 22.1529C21.7018 22.2873 22.0117 22.3286 22.3108 22.2705C22.5351 22.2183 22.7436 22.1128 22.9187 21.963C23.4172 21.5299 24.032 21.2528 24.6865 21.1661ZM21.8915 25.5384C21.7621 25.2105 21.5137 24.9437 21.196 24.7913C20.8783 24.6388 20.5148 24.6121 20.1782 24.7164C19.8416 24.8206 19.5569 25.0483 19.3809 25.3536C19.205 25.659 19.1508 26.0196 19.2293 26.3632L19.2922 26.552C19.6643 27.6224 20.3229 28.5702 21.1963 29.2921C21.4837 29.4761 21.8286 29.5485 22.1657 29.4957C22.5029 29.4429 22.8091 29.2685 23.0266 29.0054C23.244 28.7422 23.3577 28.4086 23.3462 28.0674C23.3347 27.7262 23.1988 27.401 22.9641 27.1531C22.4539 26.7309 22.0766 26.1702 21.8775 25.5384H21.8915ZM17.458 37.516C17.1195 37.5577 16.8079 37.7218 16.582 37.9773C16.356 38.2329 16.2313 38.5623 16.2313 38.9035C16.2313 39.2447 16.356 39.5741 16.582 39.8297C16.8079 40.0852 17.1195 40.2493 17.458 40.291H20.232C20.4284 40.3153 20.6278 40.2974 20.8169 40.2388C21.0059 40.1801 21.1804 40.0819 21.3286 39.9507C21.4769 39.8196 21.5956 39.6584 21.677 39.4778C21.7583 39.2973 21.8003 39.1015 21.8003 38.9035C21.8003 38.7055 21.7583 38.5097 21.677 38.3292C21.5956 38.1487 21.4769 37.9875 21.3286 37.8563C21.1804 37.7251 21.0059 37.6269 20.8169 37.5683C20.6278 37.5096 20.4284 37.4918 20.232 37.516H17.458ZM25.7801 37.516C25.4416 37.5577 25.13 37.7218 24.9041 37.9773C24.6781 38.2329 24.5534 38.5623 24.5534 38.9035C24.5534 39.2447 24.6781 39.5741 24.9041 39.8297C25.13 40.0852 25.4416 40.2493 25.7801 40.291H28.5541C28.7506 40.3153 28.9499 40.2974 29.139 40.2388C29.328 40.1801 29.5025 40.0819 29.6508 39.9507C29.799 39.8196 29.9178 39.6584 29.9991 39.4778C30.0804 39.2973 30.1224 39.1015 30.1224 38.9035C30.1224 38.7055 30.0804 38.5097 29.9991 38.3292C29.9178 38.1487 29.799 37.9875 29.6508 37.8563C29.5025 37.7251 29.328 37.6269 29.139 37.5683C28.9499 37.5096 28.7506 37.4918 28.5541 37.516H25.7801ZM33.6585 37.3622C33.387 37.4558 33.151 37.6307 32.9825 37.8632C32.8139 38.0957 32.721 38.3745 32.7165 38.6616C32.7119 38.9488 32.7958 39.2304 32.9569 39.4682C33.1179 39.7059 33.3482 39.8883 33.6165 39.9905C33.9031 40.0882 34.2139 40.0882 34.5005 39.9905C35.6451 39.6282 36.659 38.9395 37.4177 38.0088C37.5635 37.8724 37.6783 37.7064 37.7545 37.5219C37.8307 37.3375 37.8666 37.1388 37.8596 36.9393C37.8527 36.7398 37.8032 36.5441 37.7143 36.3654C37.6255 36.1867 37.4994 36.029 37.3446 35.9031C37.1898 35.7772 37.0098 35.6859 36.8167 35.6354C36.6237 35.5848 36.4221 35.5763 36.2254 35.6102C36.0288 35.6441 35.8417 35.7198 35.6768 35.8321C35.5118 35.9444 35.3728 36.0907 35.2691 36.2612L35.1992 36.3416C34.7874 36.8127 34.2546 37.162 33.6585 37.3517V37.3622ZM35.6779 32.5809C35.8762 32.8499 36.1642 33.0389 36.4899 33.1137C36.8155 33.1885 37.1571 33.1441 37.4528 32.9885C37.7485 32.833 37.9788 32.5767 38.1018 32.2659C38.2248 31.9552 38.2325 31.6107 38.1235 31.2948C37.5686 30.2308 36.7197 29.3488 35.6779 28.7539C35.5194 28.6346 35.3374 28.5504 35.1439 28.5069C34.9504 28.4635 34.7499 28.4617 34.5557 28.5017C34.3615 28.5417 34.178 28.6226 34.0174 28.7391C33.8569 28.8555 33.7229 29.0048 33.6245 29.177C33.526 29.3492 33.4653 29.5404 33.4465 29.7379C33.4276 29.9353 33.4509 30.1346 33.515 30.3223C33.579 30.5101 33.6822 30.682 33.8178 30.8268C33.9534 30.9716 34.1182 31.0858 34.3013 31.162C34.8777 31.4957 35.3458 31.9883 35.6499 32.5809H35.6779ZM40.1044 12.722C39.4245 13.4692 38.6423 14.1164 37.7811 14.6443C37.7252 14.6797 37.6604 14.6985 37.5942 14.6985C37.528 14.6985 37.4632 14.6797 37.4073 14.6443C36.1784 13.8694 35.0874 12.8949 34.179 11.7609C33.0675 10.4079 32.3195 8.79349 32.0059 7.0705C31.7176 5.56456 31.995 4.00515 32.785 2.6912C33.1076 2.18162 33.5139 1.73023 33.9869 1.35608C35.0215 0.493068 36.3223 0.0140302 37.6693 0C38.5617 0.0258007 39.4337 0.273511 40.2065 0.720775C40.9793 1.16804 41.6287 1.80078 42.0959 2.56188C42.9518 3.9599 43.144 5.77034 42.7597 7.59127C42.3445 9.50556 41.4281 11.275 40.1044 12.7185V12.722ZM37.4247 2.84498C37.9679 2.84498 38.4988 3.00609 38.9504 3.30795C39.402 3.60981 39.7539 4.03885 39.9618 4.54082C40.1696 5.04279 40.224 5.59514 40.118 6.12803C40.0121 6.66092 39.7506 7.15041 39.3665 7.5346C38.9825 7.91879 38.4932 8.18043 37.9605 8.28643C37.4278 8.39242 36.8756 8.33802 36.3738 8.1301C35.8721 7.92218 35.4432 7.57007 35.1414 7.11831C34.8397 6.66655 34.6786 6.13542 34.6786 5.5921C34.6782 5.23121 34.7489 4.87378 34.8867 4.54028C35.0246 4.20677 35.2268 3.90375 35.4819 3.64856C35.737 3.39338 36.0399 3.19105 36.3733 3.05315C36.7067 2.91526 37.064 2.84452 37.4247 2.84498ZM5.5303 21.7183C6.07342 21.7183 6.60435 21.8794 7.05594 22.1813C7.50753 22.4831 7.85951 22.9122 8.06735 23.4141C8.27519 23.9161 8.32958 24.4685 8.22362 25.0014C8.11766 25.5342 7.85612 26.0237 7.47207 26.4079C7.08803 26.7921 6.59872 27.0537 6.06603 27.1597C5.53334 27.2657 4.9812 27.2113 4.47942 27.0034C3.97763 26.7955 3.54875 26.4434 3.24701 25.9916C2.94527 25.5399 2.78421 25.0087 2.78421 24.4654C2.78375 24.1045 2.85447 23.7471 2.99231 23.4136C3.13015 23.0801 3.33241 22.7771 3.58749 22.5219C3.84258 22.2667 4.14549 22.0644 4.47887 21.9265C4.81225 21.7886 5.16955 21.7178 5.5303 21.7183Z" fill="#018390"/>
</svg>
