<svg width="46" height="44" viewBox="0 0 46 44" fill="none" xmlns="http://www.w3.org/2000/svg">
<path fill-rule="evenodd" clip-rule="evenodd" d="M9.68196 28.4971C10.0296 28.4971 10.3631 28.6359 10.6089 28.8831C10.8548 29.1303 10.9929 29.4656 10.9929 29.8152C10.9929 30.1647 10.8548 30.5 10.6089 30.7472C10.3631 30.9944 10.0296 31.1332 9.68196 31.1332H7.22073L3.97804 40.5251H41.6743L38.1541 31.1332H36.1201C35.7724 31.1332 35.439 30.9944 35.1931 30.7472C34.9473 30.5 34.8091 30.1647 34.8091 29.8152C34.8091 29.4656 34.9473 29.1303 35.1931 28.8831C35.439 28.6359 35.7724 28.4971 36.1201 28.4971H40.0274L45.3077 43.1539H0.435913L5.29995 28.4971H9.68196Z" fill="#018390"/>
<path fill-rule="evenodd" clip-rule="evenodd" d="M29.307 31.5554C27.675 33.3602 25.7963 34.9227 23.7273 36.1963C23.5989 36.2922 23.4444 36.3464 23.2845 36.3517C23.1246 36.3569 22.9669 36.313 22.8326 36.2256C19.8789 34.3494 17.2565 31.9918 15.0728 29.2497C12.2464 25.6993 10.4644 21.745 9.8582 17.9376C9.25202 14.1302 9.81803 10.3632 11.7279 7.34149C12.5046 6.11422 13.481 5.02697 14.6163 4.1252C17.3113 1.96633 20.3896 0.824475 23.4424 0.846504C26.5731 0.891991 29.5719 2.12161 31.8413 4.29042C32.714 5.09237 33.4678 6.01599 34.0798 7.03308C36.1357 10.4366 36.5775 14.7764 35.6755 19.1749C34.6751 23.7933 32.4752 28.0626 29.2997 31.5481L29.307 31.5554ZM22.8728 7.71232C24.1771 7.71232 25.4522 8.10121 26.5367 8.82981C27.6212 9.55842 28.4665 10.594 28.9657 11.8056C29.4648 13.0173 29.5954 14.3505 29.341 15.6368C29.0865 16.923 28.4584 18.1045 27.5361 19.0319C26.6138 19.9592 25.4387 20.5907 24.1594 20.8466C22.8801 21.1024 21.5541 20.9711 20.349 20.4692C19.1439 19.9674 18.1139 19.1175 17.3893 18.027C16.6646 16.9366 16.2778 15.6546 16.2778 14.3431C16.2778 12.5845 16.9727 10.898 18.2095 9.65444C19.4462 8.41092 21.1237 7.71232 22.8728 7.71232Z" fill="#018390"/>
</svg>
