<svg width="24" height="24" viewBox="0 0 24 24" fill="none" xmlns="http://www.w3.org/2000/svg">
<path d="M16.188 9.156C15.972 5.808 14.616 2.544 12.072 0C9.504 2.568 8.088 5.832 7.812 9.156C9.348 9.972 10.764 11.028 12 12.312C13.236 11.04 14.652 9.984 16.188 9.156ZM8.388 12.336C8.22 12.216 8.028 12.108 7.848 11.988C8.028 12.12 8.22 12.216 8.388 12.336ZM12 16.14C9.42 12.204 5.016 9.6 0 9.6C0 15.984 4.032 21.384 9.636 23.388C10.392 23.664 11.184 23.868 12 24C12.816 23.856 13.596 23.652 14.364 23.388C19.968 21.384 24 15.984 24 9.6C18.984 9.6 14.58 12.204 12 16.14Z" fill="#E1E1E1"/>
</svg>
