<svg width="27" height="24" viewBox="0 0 27 24" fill="none" xmlns="http://www.w3.org/2000/svg">
<path d="M26.5262 7.85333L25.1262 2.02667C24.8328 0.826667 23.7929 0 22.5795 0H4.05951C2.85951 0 1.80618 0.84 1.52618 2.02667L0.126181 7.85333C-0.193819 9.21333 0.0995142 10.6 0.952847 11.6933C1.05951 11.84 1.20618 11.9467 1.32618 12.08V21.3333C1.32618 22.8 2.52618 24 3.99285 24H22.6595C24.1262 24 25.3262 22.8 25.3262 21.3333V12.08C25.4462 11.96 25.5928 11.84 25.6995 11.7067C26.5529 10.6133 26.8595 9.21333 26.5262 7.85333ZM22.5395 2.65333L23.9395 8.48C24.0728 9.04 23.9528 9.6 23.6062 10.04C23.4195 10.28 23.0195 10.6667 22.3528 10.6667C21.5395 10.6667 20.8328 10.0133 20.7395 9.14667L19.9662 2.66667L22.5395 2.65333ZM14.6595 2.66667H17.2728L17.9928 8.69333C18.0595 9.21333 17.8995 9.73333 17.5528 10.12C17.2595 10.4667 16.8328 10.6667 16.2862 10.6667C15.3928 10.6667 14.6595 9.88 14.6595 8.92V2.66667ZM8.64618 8.69333L9.37951 2.66667H11.9928V8.92C11.9928 9.88 11.2595 10.6667 10.2728 10.6667C9.81951 10.6667 9.40618 10.4667 9.08618 10.12C8.75285 9.73333 8.59285 9.21333 8.64618 8.69333ZM2.71285 8.48L4.05951 2.66667H6.68618L5.91285 9.14667C5.80618 10.0133 5.11285 10.6667 4.29951 10.6667C3.64618 10.6667 3.23285 10.28 3.05951 10.04C2.69951 9.61333 2.57951 9.04 2.71285 8.48ZM3.99285 21.3333V13.2933C4.09951 13.3067 4.19285 13.3333 4.29951 13.3333C5.45951 13.3333 6.51285 12.8533 7.28618 12.0667C8.08618 12.8667 9.15285 13.3333 10.3662 13.3333C11.5262 13.3333 12.5662 12.8533 13.3395 12.0933C14.1262 12.8533 15.1928 13.3333 16.3928 13.3333C17.5128 13.3333 18.5795 12.8667 19.3795 12.0667C20.1528 12.8533 21.2062 13.3333 22.3662 13.3333C22.4729 13.3333 22.5662 13.3067 22.6728 13.2933V21.3333H3.99285Z" fill="#E1E1E1"/>
</svg>
