<svg width="71" height="50" viewBox="0 0 71 50" fill="none" xmlns="http://www.w3.org/2000/svg">
<path fill-rule="evenodd" clip-rule="evenodd" d="M54.3551 50L48.1332 29.2258H49.7463L59.1368 50H54.3551ZM30.1013 6.02621C29.9342 5.74392 30.0321 5.37522 30.3202 5.21391C30.6025 5.04684 30.9712 5.14478 31.1325 5.43283L31.8987 6.75786C32.0658 7.04015 31.9678 7.40885 31.6798 7.57016C31.3975 7.73723 31.0288 7.63929 30.8675 7.35124L30.1013 6.02621ZM34.8599 7.99648C36.3347 7.99648 37.6655 8.59562 38.6333 9.55771C39.6012 10.5256 40.1946 11.8564 40.1946 13.3312C40.1946 14.806 39.5954 16.1368 38.6333 17.1046C37.6655 18.0725 36.3347 18.6659 34.8599 18.6659C33.3851 18.6659 32.0543 18.0667 31.0864 17.1046C30.1186 16.1368 29.5252 14.806 29.5252 13.3312C29.5252 11.8564 30.1243 10.5256 31.0864 9.55771C32.0543 8.58986 33.3851 7.99648 34.8599 7.99648ZM37.8268 10.3643C37.0663 9.6038 36.0178 9.13716 34.8599 9.13716C33.7019 9.13716 32.6534 9.60956 31.893 10.3643C31.1325 11.1247 30.6659 12.1732 30.6659 13.3312C30.6659 14.4891 31.1383 15.5376 31.893 16.2981C32.6534 17.0585 33.7019 17.5252 34.8599 17.5252C36.0178 17.5252 37.0663 17.0528 37.8268 16.2981C38.5872 15.5376 39.0539 14.4891 39.0539 13.3312C39.0596 12.1732 38.5872 11.1247 37.8268 10.3643ZM34.3875 4.62629C34.3875 4.29791 34.6525 4.02714 34.9866 4.02714C35.315 4.02714 35.5858 4.29215 35.5858 4.62629V6.15871C35.5858 6.48709 35.3208 6.75786 34.9866 6.75786C34.6582 6.75786 34.3875 6.49285 34.3875 6.15871V4.62629ZM38.8062 5.55381C38.9675 5.27152 39.3362 5.16782 39.6185 5.33489C39.9008 5.4962 40.0045 5.8649 39.8374 6.14719L39.0712 7.47223C38.9099 7.75451 38.5412 7.85821 38.2589 7.69114C37.9766 7.52984 37.8729 7.16113 38.0399 6.87884L38.8062 5.55381ZM42.1648 8.56682C42.4471 8.39975 42.8158 8.49768 42.9771 8.78574C43.1442 9.06802 43.0463 9.43673 42.7582 9.59804L41.4332 10.3643C41.1509 10.5313 40.7822 10.4334 40.6209 10.1453C40.4538 9.86304 40.5518 9.49434 40.8398 9.33303L42.1648 8.56682ZM43.5705 12.8588C43.8989 12.8588 44.1697 13.1238 44.1697 13.4579C44.1697 13.7863 43.9047 14.0571 43.5705 14.0571H42.0381C41.7097 14.0571 41.4389 13.7921 41.4389 13.4579C41.4389 13.1295 41.704 12.8588 42.0381 12.8588H43.5705ZM42.6372 17.2775C42.9195 17.4388 43.0232 17.8075 42.8562 18.0898C42.6948 18.3721 42.3261 18.4758 42.0439 18.3087L40.7188 17.5425C40.4365 17.3812 40.3328 17.0125 40.4999 16.7302C40.6612 16.4479 41.0299 16.3442 41.3122 16.5112L42.6372 17.2775ZM39.6242 20.6361C39.7913 20.9184 39.6934 21.2871 39.4053 21.4484C39.123 21.6155 38.7543 21.5176 38.593 21.2295L37.8268 19.9045C37.6597 19.6222 37.7577 19.2535 38.0457 19.0922C38.328 18.9251 38.6967 19.0231 38.858 19.3111L39.6242 20.6361ZM35.338 22.0418C35.338 22.3702 35.073 22.641 34.7389 22.641C34.4105 22.641 34.1397 22.376 34.1397 22.0418V20.5094C34.1397 20.181 34.4048 19.9102 34.7389 19.9102C35.0673 19.9102 35.338 20.1753 35.338 20.5094V22.0418ZM30.9193 21.1085C30.758 21.3908 30.3893 21.4945 30.107 21.3275C29.8247 21.1661 29.7211 20.7974 29.8881 20.5152L30.6543 19.1901C30.8156 18.9078 31.1843 18.8041 31.4666 18.9712C31.7489 19.1325 31.8526 19.5012 31.6856 19.7835L30.9193 21.1085ZM27.5607 18.0955C27.2784 18.2626 26.9097 18.1647 26.7484 17.8766C26.5813 17.5943 26.6792 17.2256 26.9673 17.0643L28.2923 16.2981C28.5746 16.131 28.9433 16.229 29.1046 16.517C29.2717 16.7993 29.1738 17.168 28.8857 17.3293L27.5607 18.0955ZM26.155 13.8093C25.8266 13.8093 25.5558 13.5443 25.5558 13.2102C25.5558 12.8818 25.8208 12.611 26.155 12.611H27.6874C28.0158 12.611 28.2866 12.8761 28.2866 13.2102C28.2866 13.5386 28.0216 13.8093 27.6874 13.8093H26.155ZM27.0883 9.39064C26.806 9.22933 26.7023 8.86063 26.8694 8.57834C27.0307 8.29605 27.3994 8.19235 27.6817 8.35942L29.0067 9.12564C29.289 9.28694 29.3927 9.65565 29.2256 9.93794C29.0643 10.2202 28.6956 10.3239 28.4133 10.1569L27.0883 9.39064ZM4.85077 24.7725C5.20795 20.6131 5.92808 17.1853 8.90652 15.8315C10.3698 20.2501 9.54599 24.5018 8.02509 29.2431H0.610667V33.4544H16.0675L17.8303 29.2431H10.7673C12.0924 21.8459 11.1879 18.856 10.1221 16.1714C11.9599 17.3293 13.596 19.8181 15.163 23.7759C17.3637 19.6798 15.9638 16.661 10.7443 14.7081C13.7285 13.7805 16.5283 14.9673 19.1554 17.289C17.7497 11.9889 13.74 10.7042 10.1567 13.7344C10.6463 9.93218 9.07935 9.02194 6.98234 8.18659C7.97324 9.69021 8.71641 11.2572 8.60119 13.0604C5.3635 10.0877 2.66735 11.1881 0.178591 13.8036C2.56365 13.2448 5.03512 13.0086 7.12637 14.4085C3.38747 13.9361 1.29623 16.0446 0 18.8157C1.56699 17.3812 3.04181 16.4479 4.60881 16.2808C2.96692 19.2593 3.68705 21.892 4.85653 24.7783L4.85077 24.7725ZM59.1771 29.2373V21.0106H52.4021C51.2672 21.1143 51.0368 20.2213 51.5207 19.4724L55.8472 14.4027L55.7205 14.276H53.4046C52.5635 14.4027 52.2524 13.4925 52.7651 12.853L57.4257 7.38005H56.0662C55.2135 7.40309 55.0004 6.6196 55.5477 5.87643L59.7935 0.835542C60.0816 0.489881 60.3927 -0.0113269 60.8996 0.00019515C61.3317 0.0117172 61.5967 0.420749 61.856 0.720321L66.3726 5.98588C66.8623 6.68873 66.4475 7.42614 65.5891 7.42614H64.3678L68.9939 12.853C69.5469 13.4003 69.2646 14.2817 68.6252 14.4027H65.9348L69.9675 19.1383L70.4111 19.6568C70.751 20.0427 70.5781 20.9242 69.8522 21.0106H62.5819V29.2373H70.7855V33.4486H55.1156L53.3585 29.2373H59.1771ZM22.3182 50L26.2184 29.2258H24.2999L18.0838 50H22.3182ZM16.0271 50L22.249 29.2258H20.6359L11.2455 50H16.0271ZM36.1849 50V29.2258H38.1379L40.0851 50H36.1849ZM42.2224 50L40.0621 29.2258H42.015L46.1226 50H42.2224ZM48.0699 50L44.1697 29.2258H46.0881L52.3042 50H48.0699ZM34.2031 50V29.2258H32.2501L30.3029 50H34.2031ZM28.1598 50L30.3202 29.2258H28.3672L24.2596 50H28.1598ZM0.610667 43.6687H11.4356L8.56662 50H0.610667V43.6687ZM59.7359 43.6687H70.7913V50H62.5934L59.7359 43.6687ZM0.610667 36.404H14.7251L12.7722 40.7075H0.610667V36.404ZM56.4579 36.404H70.7913V40.7075H58.3994L56.4579 36.404Z" fill="#018390"/>
</svg>
